<svg id="svg" version="1.1" xmlns="http://www.w3.org/2000/svg" xmlns:xlink="http://www.w3.org/1999/xlink" width="400" height="34.93449781659389" viewBox="0, 0, 400,34.93449781659389"><g id="svgg"><path id="path0" d="M6.167 0.167 C 6.167 0.258,5.792 0.333,5.333 0.333 C 4.704 0.333,4.500 0.394,4.500 0.583 C 4.500 0.721,4.362 0.833,4.192 0.833 C 4.023 0.833,3.749 0.983,3.583 1.167 C 3.417 1.350,3.143 1.500,2.974 1.500 C 2.805 1.500,2.667 1.613,2.667 1.750 C 2.667 1.887,2.547 2.000,2.401 2.000 C 2.255 2.000,2.096 2.150,2.048 2.333 C 2.000 2.517,1.857 2.667,1.731 2.667 C 1.604 2.667,1.500 2.782,1.500 2.922 C 1.500 3.062,1.392 3.219,1.260 3.269 C 1.128 3.320,0.972 3.580,0.914 3.847 C 0.855 4.115,0.700 4.333,0.570 4.333 C 0.405 4.333,0.333 4.535,0.333 5.000 C 0.333 5.367,0.258 5.667,0.167 5.667 C 0.060 5.667,0.000 7.167,0.000 9.833 C 0.000 12.500,0.060 14.000,0.167 14.000 C 0.258 14.000,0.333 14.300,0.333 14.667 C 0.333 15.148,0.403 15.333,0.583 15.333 C 0.722 15.333,0.833 15.481,0.833 15.667 C 0.833 15.850,0.970 16.137,1.138 16.304 C 1.305 16.472,1.490 16.734,1.549 16.888 C 1.608 17.041,1.734 17.167,1.828 17.167 C 1.923 17.167,2.000 17.279,2.000 17.417 C 2.000 17.554,2.141 17.667,2.314 17.667 C 2.488 17.667,2.667 17.816,2.715 18.000 C 2.778 18.243,2.942 18.333,3.318 18.333 C 3.665 18.333,3.833 18.415,3.833 18.583 C 3.833 18.721,3.908 18.833,4.000 18.833 C 4.092 18.833,4.317 18.983,4.500 19.167 C 4.722 19.389,5.056 19.500,5.500 19.500 C 5.981 19.500,6.167 19.569,6.167 19.750 C 6.167 19.947,6.401 20.000,7.273 20.000 C 8.135 20.000,8.427 20.065,8.593 20.292 C 8.788 20.558,9.314 20.587,14.736 20.631 C 19.809 20.672,20.667 20.714,20.667 20.923 C 20.667 21.057,20.817 21.167,21.000 21.167 C 21.260 21.167,21.333 21.278,21.333 21.672 C 21.333 21.967,21.437 22.217,21.583 22.273 C 21.738 22.332,21.833 22.586,21.833 22.940 C 21.833 23.293,21.738 23.547,21.583 23.606 C 21.441 23.661,21.333 23.910,21.333 24.184 C 21.333 24.556,21.257 24.667,21.000 24.667 C 20.778 24.667,20.667 24.778,20.667 25.000 C 20.667 25.330,20.556 25.333,10.853 25.333 L 1.039 25.333 0.938 25.708 C 0.883 25.915,0.837 27.715,0.836 29.708 L 0.833 33.333 12.089 33.333 C 21.939 33.333,23.356 33.302,23.440 33.083 C 23.499 32.929,23.752 32.833,24.101 32.833 C 24.556 32.833,24.667 32.768,24.667 32.500 C 24.667 32.230,24.778 32.167,25.250 32.167 C 25.657 32.167,25.833 32.091,25.833 31.917 C 25.833 31.779,25.972 31.667,26.141 31.667 C 26.310 31.667,26.584 31.517,26.750 31.333 C 26.916 31.150,27.134 30.997,27.234 30.993 C 27.457 30.984,28.167 29.903,28.167 29.572 C 28.167 29.441,28.317 29.333,28.500 29.333 C 28.770 29.333,28.833 29.222,28.833 28.750 C 28.833 28.343,28.909 28.167,29.083 28.167 C 29.275 28.167,29.333 27.956,29.333 27.269 C 29.333 26.512,29.385 26.359,29.667 26.285 C 29.986 26.202,30.000 26.058,30.000 22.917 C 30.000 19.776,29.986 19.632,29.667 19.548 C 29.385 19.475,29.333 19.321,29.333 18.564 C 29.333 17.877,29.275 17.667,29.083 17.667 C 28.915 17.667,28.833 17.498,28.833 17.151 C 28.833 16.776,28.743 16.612,28.500 16.548 C 28.317 16.500,28.167 16.402,28.167 16.329 C 28.167 15.917,27.240 14.833,26.887 14.833 C 26.611 14.833,26.500 14.738,26.500 14.500 C 26.500 14.278,26.389 14.167,26.167 14.167 C 25.981 14.167,25.833 14.056,25.833 13.917 C 25.833 13.742,25.657 13.667,25.250 13.667 C 24.778 13.667,24.667 13.603,24.667 13.333 C 24.667 13.072,24.556 13.000,24.155 13.000 C 23.873 13.000,23.530 12.887,23.393 12.750 C 23.179 12.536,22.200 12.500,16.655 12.500 C 11.178 12.500,10.167 12.463,10.167 12.265 C 10.167 12.118,9.902 11.985,9.463 11.910 C 8.330 11.719,7.833 11.124,7.833 9.959 C 7.833 9.218,7.890 9.000,8.083 9.000 C 8.221 9.000,8.333 8.880,8.333 8.734 C 8.333 8.588,8.483 8.430,8.667 8.382 C 8.850 8.334,9.000 8.191,9.000 8.064 C 9.000 7.870,10.498 7.833,18.333 7.833 L 27.667 7.833 27.667 3.917 L 27.667 0.000 16.917 0.000 C 9.861 0.000,6.167 0.057,6.167 0.167 M32.333 16.667 L 32.333 33.333 36.417 33.333 L 40.500 33.333 40.500 27.007 L 40.500 20.680 45.847 20.632 C 50.714 20.588,51.213 20.557,51.407 20.292 C 51.573 20.065,51.865 20.000,52.727 20.000 C 53.599 20.000,53.833 19.947,53.833 19.750 C 53.833 19.577,54.008 19.500,54.403 19.500 C 55.137 19.500,55.500 19.356,55.500 19.066 C 55.500 18.938,55.642 18.833,55.816 18.833 C 55.989 18.833,56.174 18.721,56.227 18.583 C 56.280 18.446,56.520 18.333,56.760 18.333 C 57.058 18.333,57.226 18.227,57.285 18.000 C 57.333 17.817,57.457 17.665,57.561 17.664 C 57.755 17.661,58.500 16.950,58.500 16.768 C 58.500 16.712,58.650 16.517,58.833 16.333 C 59.017 16.150,59.167 15.850,59.167 15.667 C 59.167 15.481,59.278 15.333,59.417 15.333 C 59.591 15.333,59.667 15.157,59.667 14.750 C 59.667 14.389,59.794 14.040,60.000 13.833 C 60.514 13.319,60.514 6.548,60.000 6.083 C 59.776 5.881,59.667 5.570,59.667 5.136 C 59.667 4.727,59.578 4.456,59.427 4.398 C 59.295 4.347,59.140 4.093,59.083 3.833 C 59.026 3.574,58.872 3.320,58.740 3.269 C 58.608 3.219,58.500 3.062,58.500 2.922 C 58.500 2.782,58.393 2.667,58.261 2.667 C 58.130 2.667,57.975 2.517,57.917 2.333 C 57.858 2.150,57.703 2.000,57.572 2.000 C 57.441 2.000,57.333 1.887,57.333 1.750 C 57.333 1.575,57.157 1.500,56.750 1.500 C 56.278 1.500,56.167 1.437,56.167 1.167 C 56.167 0.951,56.056 0.833,55.851 0.833 C 55.678 0.833,55.492 0.721,55.440 0.583 C 55.374 0.412,55.106 0.333,54.589 0.333 C 54.173 0.333,53.833 0.258,53.833 0.167 C 53.833 0.057,50.139 0.000,43.083 0.000 L 32.333 0.000 32.333 16.667 M70.167 0.167 C 70.167 0.258,69.904 0.333,69.583 0.333 C 69.176 0.333,69.000 0.409,69.000 0.583 C 69.000 0.721,68.887 0.833,68.750 0.833 C 68.611 0.833,68.500 0.981,68.500 1.167 C 68.500 1.389,68.389 1.500,68.167 1.500 C 67.981 1.500,67.833 1.611,67.833 1.750 C 67.833 1.887,67.721 2.000,67.583 2.000 C 67.446 2.000,67.333 2.141,67.333 2.314 C 67.333 2.488,67.184 2.667,67.000 2.715 C 66.761 2.777,66.667 2.942,66.667 3.297 C 66.667 3.570,66.554 3.886,66.417 4.000 C 66.276 4.117,66.167 4.480,66.167 4.834 C 66.167 5.321,66.092 5.481,65.833 5.548 C 65.555 5.621,65.500 5.776,65.500 6.484 C 65.500 7.128,65.440 7.333,65.250 7.333 C 65.061 7.333,65.000 7.537,65.000 8.167 C 65.000 8.889,64.956 9.000,64.667 9.000 C 64.378 9.000,64.333 9.111,64.333 9.839 C 64.333 10.430,64.260 10.705,64.083 10.773 C 63.941 10.828,63.833 11.076,63.833 11.351 C 63.833 11.616,63.683 11.983,63.500 12.167 C 63.298 12.369,63.167 12.722,63.167 13.066 C 63.167 13.414,63.071 13.668,62.917 13.727 C 62.746 13.792,62.667 14.059,62.667 14.567 C 62.667 15.164,62.601 15.332,62.333 15.417 C 62.059 15.504,62.000 15.669,62.000 16.345 C 62.000 16.964,61.938 17.167,61.750 17.167 C 61.561 17.167,61.500 17.370,61.500 18.000 C 61.500 18.722,61.456 18.833,61.167 18.833 C 60.891 18.833,60.833 18.944,60.833 19.480 C 60.833 19.851,60.727 20.214,60.583 20.333 C 60.442 20.450,60.333 20.814,60.333 21.168 C 60.333 21.654,60.259 21.814,60.000 21.882 C 59.728 21.953,59.667 22.109,59.667 22.734 C 59.667 23.304,59.603 23.500,59.417 23.500 C 59.225 23.500,59.167 23.713,59.167 24.417 C 59.167 25.222,59.126 25.333,58.833 25.333 C 58.544 25.333,58.500 25.444,58.500 26.167 C 58.500 26.796,58.439 27.000,58.250 27.000 C 58.067 27.000,58.000 27.190,58.000 27.710 C 58.000 28.239,57.915 28.473,57.667 28.628 C 57.440 28.770,57.333 29.017,57.333 29.400 C 57.333 29.748,57.237 30.001,57.083 30.060 C 56.913 30.125,56.833 30.392,56.833 30.892 C 56.833 31.488,56.770 31.644,56.500 31.715 C 56.228 31.786,56.167 31.942,56.167 32.568 L 56.167 33.333 60.583 33.333 L 65.000 33.333 65.000 32.750 C 65.000 32.343,65.075 32.167,65.250 32.167 C 65.438 32.167,65.500 31.965,65.500 31.353 C 65.500 30.679,65.557 30.524,65.833 30.452 C 66.076 30.388,66.167 30.224,66.167 29.849 L 66.167 29.333 73.667 29.333 C 80.222 29.333,81.167 29.365,81.167 29.583 C 81.167 29.722,81.315 29.833,81.500 29.833 C 81.789 29.833,81.833 29.944,81.833 30.672 C 81.833 31.264,81.907 31.539,82.083 31.606 C 82.221 31.659,82.334 31.901,82.336 32.143 C 82.337 32.385,82.383 32.752,82.438 32.958 L 82.539 33.333 86.853 33.333 L 91.167 33.333 91.167 32.261 C 91.167 31.336,91.121 31.175,90.833 31.083 C 90.559 30.996,90.500 30.831,90.500 30.155 C 90.500 29.536,90.438 29.333,90.250 29.333 C 90.077 29.333,90.000 29.159,90.000 28.764 C 90.000 28.029,89.856 27.667,89.566 27.667 C 89.406 27.667,89.333 27.460,89.333 27.012 C 89.333 26.652,89.221 26.245,89.083 26.107 C 88.946 25.970,88.833 25.620,88.833 25.330 C 88.833 24.942,88.745 24.779,88.500 24.715 C 88.224 24.643,88.167 24.488,88.167 23.814 C 88.167 23.202,88.105 23.000,87.917 23.000 C 87.727 23.000,87.667 22.795,87.667 22.151 C 87.667 21.442,87.612 21.288,87.333 21.215 C 87.057 21.143,87.000 20.988,87.000 20.314 C 87.000 19.702,86.938 19.500,86.750 19.500 C 86.589 19.500,86.499 19.337,86.498 19.042 C 86.494 18.328,86.317 17.833,86.064 17.833 C 85.906 17.833,85.833 17.623,85.833 17.167 C 85.833 16.685,85.764 16.500,85.583 16.500 C 85.394 16.500,85.333 16.296,85.333 15.667 C 85.333 14.944,85.289 14.833,85.000 14.833 C 84.712 14.833,84.667 14.722,84.667 14.018 C 84.667 13.447,84.592 13.174,84.417 13.106 C 84.261 13.047,84.167 12.793,84.167 12.436 C 84.167 11.696,84.024 11.333,83.732 11.333 C 83.568 11.333,83.500 11.113,83.500 10.578 C 83.500 10.061,83.421 9.793,83.250 9.727 C 83.096 9.668,83.000 9.414,83.000 9.066 C 83.000 8.611,82.935 8.500,82.667 8.500 C 82.374 8.500,82.333 8.389,82.333 7.583 C 82.333 6.880,82.275 6.667,82.083 6.667 C 81.894 6.667,81.833 6.463,81.833 5.833 C 81.833 5.111,81.789 5.000,81.500 5.000 C 81.216 5.000,81.167 4.889,81.167 4.245 C 81.167 3.727,81.088 3.459,80.917 3.394 C 80.779 3.341,80.667 3.156,80.667 2.982 C 80.667 2.778,80.549 2.667,80.333 2.667 C 80.063 2.667,80.000 2.556,80.000 2.083 C 80.000 1.676,79.925 1.500,79.750 1.500 C 79.612 1.500,79.500 1.396,79.500 1.268 C 79.500 1.013,79.150 0.833,78.653 0.833 C 78.477 0.833,78.333 0.721,78.333 0.583 C 78.333 0.409,78.157 0.333,77.750 0.333 C 77.429 0.333,77.167 0.258,77.167 0.167 C 77.167 0.061,75.889 0.000,73.667 0.000 C 71.444 0.000,70.167 0.061,70.167 0.167 M103.000 0.167 C 103.000 0.258,102.623 0.333,102.161 0.333 C 101.570 0.333,101.295 0.407,101.227 0.583 C 101.167 0.739,100.913 0.833,100.550 0.833 C 100.109 0.833,99.948 0.914,99.882 1.167 C 99.825 1.384,99.654 1.500,99.392 1.500 C 99.171 1.500,98.946 1.613,98.894 1.750 C 98.841 1.887,98.656 2.000,98.482 2.000 C 98.278 2.000,98.167 2.117,98.167 2.333 C 98.167 2.556,98.056 2.667,97.833 2.667 C 97.648 2.667,97.500 2.778,97.500 2.917 C 97.500 3.054,97.388 3.167,97.250 3.167 C 97.111 3.167,97.000 3.315,97.000 3.500 C 97.000 3.722,96.889 3.833,96.667 3.833 C 96.481 3.833,96.333 3.944,96.333 4.083 C 96.333 4.221,96.221 4.333,96.083 4.333 C 95.935 4.333,95.833 4.486,95.833 4.710 C 95.833 4.917,95.683 5.180,95.500 5.295 C 95.317 5.409,95.167 5.652,95.167 5.835 C 95.167 6.019,95.055 6.167,94.917 6.167 C 94.742 6.167,94.667 6.343,94.667 6.750 C 94.667 7.136,94.588 7.333,94.436 7.333 C 94.183 7.333,94.006 7.828,94.002 8.547 C 94.001 8.804,93.888 9.053,93.750 9.106 C 93.556 9.181,93.500 9.509,93.500 10.582 C 93.500 11.821,93.466 11.970,93.167 12.048 C 92.844 12.133,92.833 12.276,92.833 16.583 C 92.833 20.891,92.844 21.034,93.167 21.118 C 93.467 21.197,93.500 21.346,93.500 22.603 C 93.500 23.734,93.548 24.000,93.750 24.000 C 93.940 24.000,94.000 24.205,94.000 24.849 C 94.000 25.558,94.055 25.712,94.333 25.785 C 94.584 25.851,94.667 26.012,94.667 26.436 C 94.667 26.826,94.744 27.000,94.917 27.000 C 95.072 27.000,95.167 27.157,95.167 27.415 C 95.167 27.650,95.312 27.921,95.500 28.039 C 95.683 28.153,95.833 28.341,95.833 28.457 C 95.833 28.572,95.946 28.667,96.083 28.667 C 96.222 28.667,96.333 28.815,96.333 29.000 C 96.333 29.222,96.444 29.333,96.667 29.333 C 96.852 29.333,97.000 29.444,97.000 29.583 C 97.000 29.721,97.112 29.833,97.250 29.833 C 97.389 29.833,97.500 29.981,97.500 30.167 C 97.500 30.389,97.611 30.500,97.833 30.500 C 98.019 30.500,98.167 30.611,98.167 30.750 C 98.167 30.887,98.279 31.000,98.417 31.000 C 98.554 31.000,98.667 31.104,98.667 31.232 C 98.667 31.487,99.017 31.667,99.514 31.667 C 99.689 31.667,99.833 31.779,99.833 31.917 C 99.833 32.088,100.005 32.167,100.377 32.167 C 100.739 32.167,100.989 32.277,101.128 32.500 C 101.281 32.744,101.517 32.833,102.013 32.833 C 102.393 32.833,102.800 32.943,102.940 33.083 C 103.157 33.299,104.421 33.333,112.262 33.333 L 121.333 33.333 121.333 29.333 L 121.333 25.333 113.167 25.333 C 105.959 25.333,105.000 25.303,105.000 25.079 C 105.000 24.929,104.791 24.783,104.486 24.722 C 104.203 24.666,103.932 24.517,103.885 24.393 C 103.837 24.269,103.693 24.167,103.566 24.167 C 103.438 24.167,103.332 24.073,103.330 23.958 C 103.327 23.704,102.608 23.000,102.352 23.000 C 102.250 23.000,102.167 22.738,102.167 22.417 C 102.167 22.032,102.088 21.833,101.937 21.833 C 101.774 21.833,101.685 21.533,101.633 20.811 C 101.582 20.111,101.471 19.724,101.279 19.584 C 100.859 19.277,100.859 13.890,101.279 13.582 C 101.471 13.443,101.582 13.056,101.633 12.356 C 101.685 11.633,101.774 11.333,101.937 11.333 C 102.087 11.333,102.167 11.138,102.167 10.769 C 102.167 10.346,102.250 10.184,102.500 10.118 C 102.683 10.070,102.833 9.912,102.833 9.766 C 102.833 9.620,102.946 9.500,103.083 9.500 C 103.221 9.500,103.333 9.387,103.333 9.250 C 103.333 9.112,103.448 9.000,103.589 9.000 C 103.729 9.000,103.885 8.892,103.936 8.760 C 103.986 8.628,104.247 8.472,104.514 8.414 C 104.781 8.355,105.000 8.200,105.000 8.070 C 105.000 7.869,106.222 7.833,113.167 7.833 L 121.333 7.833 121.333 3.917 L 121.333 0.000 112.167 0.000 C 106.167 0.000,103.000 0.058,103.000 0.167 M130.167 0.167 C 130.167 0.258,129.904 0.333,129.583 0.333 C 129.176 0.333,129.000 0.409,129.000 0.583 C 129.000 0.752,128.832 0.833,128.484 0.833 C 128.109 0.833,127.945 0.924,127.882 1.167 C 127.833 1.351,127.654 1.500,127.481 1.500 C 127.308 1.500,127.167 1.613,127.167 1.750 C 127.167 1.887,127.054 2.000,126.917 2.000 C 126.778 2.000,126.667 2.148,126.667 2.333 C 126.667 2.522,126.556 2.667,126.411 2.667 C 126.271 2.667,126.108 2.798,126.049 2.958 C 125.990 3.119,125.842 3.310,125.721 3.383 C 125.599 3.457,125.500 3.700,125.500 3.925 C 125.500 4.163,125.403 4.333,125.268 4.333 C 125.002 4.333,124.833 4.687,124.833 5.246 C 124.833 5.458,124.721 5.674,124.583 5.727 C 124.227 5.864,124.205 13.000,124.562 13.000 C 124.710 13.000,124.821 13.272,124.877 13.775 C 124.930 14.242,125.071 14.610,125.232 14.700 C 125.380 14.782,125.500 14.959,125.500 15.092 C 125.500 15.225,125.612 15.333,125.750 15.333 C 125.888 15.333,126.000 15.453,126.000 15.599 C 126.000 15.745,126.150 15.904,126.333 15.952 C 126.517 16.000,126.667 16.143,126.667 16.269 C 126.667 16.491,126.568 16.632,125.833 17.458 C 125.650 17.665,125.500 17.937,125.500 18.064 C 125.500 18.191,125.350 18.334,125.167 18.382 C 124.927 18.444,124.833 18.609,124.833 18.967 C 124.833 19.255,124.728 19.505,124.583 19.560 C 124.372 19.641,124.333 20.189,124.333 23.066 C 124.333 25.875,124.377 26.520,124.583 26.726 C 124.721 26.864,124.833 27.214,124.833 27.504 C 124.833 27.891,124.922 28.054,125.167 28.118 C 125.417 28.184,125.500 28.346,125.500 28.769 C 125.500 29.160,125.577 29.333,125.750 29.333 C 125.888 29.333,126.000 29.438,126.000 29.566 C 126.000 29.693,126.106 29.838,126.236 29.888 C 126.365 29.938,126.572 30.190,126.695 30.448 C 126.846 30.764,127.068 30.934,127.376 30.969 C 127.699 31.007,127.833 31.117,127.833 31.344 C 127.833 31.522,127.946 31.667,128.083 31.667 C 128.221 31.667,128.333 31.779,128.333 31.917 C 128.333 32.090,128.507 32.167,128.897 32.167 C 129.321 32.167,129.483 32.250,129.548 32.500 C 129.611 32.741,129.776 32.833,130.143 32.833 C 130.422 32.833,130.713 32.946,130.791 33.085 C 130.914 33.305,132.263 33.331,141.841 33.293 L 152.750 33.250 152.795 29.681 C 152.839 26.205,152.831 26.102,152.474 25.723 L 152.109 25.333 142.907 25.333 C 133.846 25.333,133.704 25.328,133.618 25.000 C 133.570 24.817,133.412 24.667,133.266 24.667 C 133.120 24.667,133.000 24.554,133.000 24.417 C 133.000 24.279,132.887 24.167,132.750 24.167 C 132.552 24.167,132.500 23.928,132.500 23.018 C 132.500 22.150,132.561 21.845,132.750 21.773 C 132.887 21.720,133.000 21.562,133.000 21.422 C 133.000 21.282,133.115 21.167,133.255 21.167 C 133.396 21.167,133.554 21.054,133.606 20.917 C 133.690 20.699,134.878 20.667,142.903 20.667 L 152.104 20.667 152.472 20.169 C 152.828 19.687,152.839 19.557,152.795 16.127 L 152.750 12.583 143.851 12.540 C 136.159 12.503,134.926 12.463,134.767 12.247 C 134.666 12.109,134.246 11.939,133.833 11.869 C 133.226 11.766,133.073 11.670,133.029 11.361 C 132.999 11.151,132.867 10.939,132.737 10.889 C 132.390 10.756,132.402 9.000,132.750 9.000 C 132.887 9.000,133.000 8.915,133.000 8.811 C 133.000 8.707,133.191 8.444,133.425 8.227 L 133.851 7.833 142.997 7.833 L 152.144 7.833 152.489 7.349 C 152.810 6.898,152.833 6.636,152.833 3.433 L 152.833 0.000 141.500 0.000 C 134.056 0.000,130.167 0.057,130.167 0.167 M162.167 0.167 C 162.167 0.258,161.792 0.333,161.333 0.333 C 160.704 0.333,160.500 0.394,160.500 0.583 C 160.500 0.722,160.352 0.833,160.167 0.833 C 159.983 0.833,159.683 0.983,159.500 1.167 C 159.317 1.350,159.054 1.500,158.917 1.500 C 158.779 1.500,158.667 1.613,158.667 1.750 C 158.667 1.887,158.554 2.000,158.417 2.000 C 158.278 2.000,158.167 2.148,158.167 2.333 C 158.167 2.556,158.056 2.667,157.833 2.667 C 157.650 2.667,157.500 2.771,157.500 2.899 C 157.500 3.027,157.387 3.174,157.250 3.227 C 157.104 3.283,157.000 3.533,157.000 3.828 C 157.000 4.222,156.927 4.333,156.667 4.333 C 156.396 4.333,156.333 4.444,156.333 4.922 C 156.333 5.291,156.240 5.546,156.083 5.606 C 155.883 5.683,155.833 6.049,155.833 7.434 C 155.833 8.863,155.790 9.167,155.583 9.167 C 155.419 9.167,155.333 9.331,155.333 9.646 C 155.333 9.910,155.446 10.219,155.583 10.333 C 155.778 10.494,155.833 10.946,155.833 12.354 C 155.833 13.854,155.876 14.167,156.083 14.167 C 156.256 14.167,156.333 14.340,156.333 14.731 C 156.333 15.154,156.416 15.316,156.667 15.382 C 156.909 15.445,157.000 15.609,157.000 15.984 C 157.000 16.332,157.082 16.500,157.250 16.500 C 157.387 16.500,157.500 16.620,157.500 16.766 C 157.500 16.912,157.650 17.070,157.833 17.118 C 158.017 17.166,158.167 17.309,158.167 17.436 C 158.167 17.563,158.270 17.667,158.397 17.667 C 158.524 17.667,158.667 17.817,158.715 18.000 C 158.763 18.183,158.927 18.333,159.080 18.333 C 159.232 18.333,159.470 18.446,159.607 18.583 C 159.745 18.721,160.002 18.833,160.179 18.833 C 160.355 18.833,160.500 18.938,160.500 19.066 C 160.500 19.347,160.859 19.500,161.519 19.500 C 161.802 19.500,162.051 19.606,162.106 19.750 C 162.178 19.937,162.477 20.000,163.291 20.000 C 164.136 20.000,164.428 20.065,164.593 20.292 C 164.788 20.558,165.314 20.587,170.736 20.631 C 175.809 20.672,176.667 20.714,176.667 20.923 C 176.667 21.057,176.817 21.167,177.000 21.167 C 177.260 21.167,177.333 21.278,177.333 21.672 C 177.333 21.967,177.437 22.217,177.583 22.273 C 177.735 22.331,177.833 22.584,177.833 22.917 C 177.833 23.250,177.735 23.502,177.583 23.560 C 177.437 23.616,177.333 23.866,177.333 24.161 C 177.333 24.556,177.260 24.667,177.000 24.667 C 176.778 24.667,176.667 24.778,176.667 25.000 C 176.667 25.330,176.556 25.333,166.833 25.333 L 157.000 25.333 157.000 29.333 L 157.000 33.333 168.172 33.333 C 177.949 33.333,179.356 33.302,179.440 33.083 C 179.500 32.927,179.754 32.833,180.117 32.833 C 180.558 32.833,180.719 32.753,180.785 32.500 C 180.851 32.250,181.012 32.167,181.436 32.167 C 181.826 32.167,182.000 32.090,182.000 31.917 C 182.000 31.779,182.112 31.667,182.250 31.667 C 182.387 31.667,182.500 31.522,182.500 31.344 C 182.500 31.117,182.635 31.007,182.958 30.969 C 183.312 30.929,183.453 30.793,183.576 30.375 C 183.679 30.025,183.841 29.833,184.034 29.833 C 184.199 29.833,184.333 29.721,184.333 29.583 C 184.333 29.446,184.446 29.333,184.583 29.333 C 184.756 29.333,184.833 29.160,184.833 28.769 C 184.833 28.346,184.916 28.184,185.167 28.118 C 185.440 28.047,185.500 27.891,185.500 27.254 C 185.500 26.785,185.599 26.377,185.750 26.226 C 185.954 26.022,186.000 25.415,186.000 22.925 C 186.000 20.416,185.956 19.837,185.750 19.667 C 185.608 19.549,185.500 19.186,185.500 18.827 C 185.500 18.032,185.363 17.667,185.066 17.667 C 184.918 17.667,184.833 17.482,184.833 17.161 C 184.833 16.866,184.729 16.616,184.583 16.560 C 184.446 16.508,184.333 16.360,184.333 16.232 C 184.333 16.104,184.183 16.000,184.000 16.000 C 183.815 16.000,183.667 15.889,183.667 15.750 C 183.667 15.427,183.073 14.833,182.750 14.833 C 182.611 14.833,182.500 14.685,182.500 14.500 C 182.500 14.317,182.396 14.167,182.268 14.167 C 182.140 14.167,181.992 14.054,181.940 13.917 C 181.885 13.774,181.636 13.667,181.358 13.667 C 181.012 13.667,180.847 13.570,180.785 13.333 C 180.721 13.089,180.558 13.000,180.170 13.000 C 179.880 13.000,179.530 12.887,179.393 12.750 C 179.179 12.536,178.200 12.500,172.655 12.500 C 167.066 12.500,166.167 12.466,166.167 12.256 C 166.167 12.088,165.904 11.977,165.333 11.901 C 164.792 11.829,164.500 11.710,164.500 11.562 C 164.500 11.436,164.350 11.333,164.167 11.333 C 163.865 11.333,163.833 11.222,163.833 10.167 C 163.833 9.265,163.888 9.000,164.072 9.000 C 164.203 9.000,164.358 8.850,164.417 8.667 C 164.475 8.483,164.630 8.333,164.761 8.333 C 164.893 8.333,165.000 8.221,165.000 8.083 C 165.000 7.864,166.148 7.833,174.333 7.833 L 183.667 7.833 183.667 3.917 L 183.667 0.000 172.917 0.000 C 165.861 0.000,162.167 0.057,162.167 0.167 M187.872 3.875 L 187.917 7.750 191.958 7.795 L 196.000 7.839 196.000 20.586 L 196.000 33.333 200.000 33.333 L 204.000 33.333 204.000 20.583 L 204.000 7.833 207.500 7.833 L 211.000 7.833 211.000 3.917 L 211.000 0.000 199.414 0.000 L 187.827 0.000 187.872 3.875 M222.667 0.167 C 222.667 0.258,222.439 0.333,222.161 0.333 C 221.866 0.333,221.616 0.437,221.560 0.583 C 221.508 0.721,221.360 0.833,221.232 0.833 C 221.104 0.833,221.000 0.983,221.000 1.167 C 221.000 1.389,220.889 1.500,220.667 1.500 C 220.481 1.500,220.333 1.611,220.333 1.750 C 220.333 1.887,220.221 2.000,220.083 2.000 C 219.944 2.000,219.833 2.148,219.833 2.333 C 219.833 2.517,219.724 2.667,219.591 2.667 C 219.443 2.667,219.303 2.909,219.232 3.287 C 219.168 3.629,219.015 4.009,218.891 4.133 C 218.768 4.256,218.667 4.587,218.667 4.869 C 218.667 5.150,218.547 5.468,218.400 5.575 C 218.250 5.684,218.094 6.114,218.045 6.552 C 217.988 7.060,217.877 7.333,217.728 7.333 C 217.566 7.333,217.500 7.569,217.500 8.147 C 217.500 8.821,217.443 8.976,217.167 9.048 C 216.894 9.120,216.833 9.276,216.833 9.906 C 216.833 10.438,216.756 10.707,216.583 10.773 C 216.420 10.836,216.333 11.095,216.333 11.516 C 216.333 11.983,216.240 12.222,216.000 12.372 C 215.781 12.509,215.667 12.761,215.667 13.106 C 215.667 13.419,215.566 13.670,215.417 13.727 C 215.248 13.792,215.167 14.056,215.167 14.541 C 215.167 15.053,215.071 15.341,214.833 15.545 C 214.603 15.742,214.500 16.036,214.500 16.498 C 214.500 16.981,214.431 17.167,214.250 17.167 C 214.062 17.167,214.000 17.368,214.000 17.981 C 214.000 18.654,213.943 18.809,213.667 18.882 C 213.388 18.954,213.333 19.109,213.333 19.818 C 213.333 20.461,213.273 20.667,213.083 20.667 C 212.917 20.667,212.833 20.833,212.833 21.167 C 212.833 21.444,212.685 21.815,212.500 22.000 C 212.298 22.202,212.167 22.556,212.167 22.899 C 212.167 23.248,212.071 23.501,211.917 23.560 C 211.740 23.628,211.667 23.903,211.667 24.495 C 211.667 25.100,211.602 25.333,211.434 25.333 C 211.144 25.333,211.000 25.696,211.000 26.430 C 211.000 26.826,210.923 27.000,210.750 27.000 C 210.562 27.000,210.500 27.202,210.500 27.822 C 210.500 28.498,210.441 28.663,210.167 28.750 C 209.931 28.825,209.833 29.002,209.833 29.356 C 209.833 29.632,209.721 29.970,209.583 30.107 C 209.446 30.245,209.333 30.652,209.333 31.012 C 209.333 31.456,209.260 31.667,209.104 31.667 C 208.886 31.667,208.667 32.346,208.667 33.021 C 208.667 33.319,208.876 33.333,213.083 33.333 L 217.500 33.333 217.500 32.929 C 217.500 32.706,217.612 32.411,217.750 32.274 C 217.897 32.126,218.000 31.719,218.000 31.281 C 218.000 30.679,218.063 30.522,218.333 30.452 C 218.576 30.388,218.667 30.224,218.667 29.849 L 218.667 29.333 226.250 29.333 C 232.880 29.333,233.833 29.365,233.833 29.583 C 233.833 29.721,233.946 29.833,234.083 29.833 C 234.273 29.833,234.333 30.039,234.333 30.682 C 234.333 31.384,234.390 31.546,234.658 31.616 C 234.911 31.682,234.994 31.872,235.033 32.476 L 235.083 33.250 239.375 33.294 L 243.667 33.339 243.667 32.248 C 243.667 31.431,243.604 31.132,243.417 31.060 C 243.264 31.002,243.167 30.749,243.167 30.412 C 243.167 29.695,243.021 29.333,242.732 29.333 C 242.565 29.333,242.500 29.101,242.500 28.500 C 242.500 27.906,242.435 27.667,242.272 27.667 C 242.124 27.667,242.013 27.394,241.956 26.891 C 241.903 26.425,241.762 26.057,241.601 25.967 C 241.438 25.876,241.333 25.598,241.333 25.260 C 241.333 24.918,241.237 24.665,241.083 24.606 C 240.917 24.543,240.833 24.280,240.833 23.823 C 240.833 23.276,240.765 23.118,240.500 23.048 C 240.224 22.976,240.167 22.821,240.167 22.142 C 240.167 21.568,240.092 21.294,239.917 21.227 C 239.779 21.174,239.666 20.933,239.664 20.691 C 239.661 19.993,239.481 19.500,239.231 19.500 C 239.068 19.500,239.000 19.277,239.000 18.745 C 239.000 18.227,238.921 17.959,238.750 17.894 C 238.596 17.835,238.500 17.582,238.500 17.238 C 238.500 16.849,238.398 16.624,238.167 16.500 C 237.910 16.362,237.833 16.151,237.833 15.577 C 237.833 15.027,237.768 14.833,237.583 14.833 C 237.398 14.833,237.333 14.639,237.333 14.085 C 237.333 13.517,237.253 13.286,237.000 13.128 C 236.751 12.972,236.667 12.739,236.667 12.205 C 236.667 11.723,236.585 11.458,236.417 11.394 C 236.279 11.341,236.166 11.099,236.164 10.857 C 236.161 10.160,235.981 9.667,235.731 9.667 C 235.581 9.667,235.500 9.474,235.500 9.115 C 235.500 8.812,235.390 8.418,235.255 8.240 C 235.121 8.062,235.008 7.666,235.005 7.359 C 235.001 6.945,234.915 6.780,234.667 6.715 C 234.391 6.643,234.333 6.488,234.333 5.814 C 234.333 5.236,234.267 5.000,234.105 5.000 C 233.957 5.000,233.846 4.728,233.789 4.225 C 233.737 3.758,233.595 3.390,233.434 3.300 C 233.287 3.218,233.167 3.049,233.167 2.926 C 233.167 2.803,233.065 2.663,232.940 2.615 C 232.816 2.568,232.668 2.297,232.611 2.014 C 232.555 1.731,232.403 1.500,232.274 1.500 C 232.145 1.500,232.000 1.350,231.952 1.167 C 231.892 0.940,231.724 0.833,231.427 0.833 C 231.186 0.833,230.946 0.721,230.894 0.583 C 230.841 0.446,230.618 0.333,230.399 0.333 C 230.179 0.333,230.000 0.258,230.000 0.167 C 230.000 0.061,228.667 0.000,226.333 0.000 C 224.000 0.000,222.667 0.061,222.667 0.167 M255.667 0.167 C 255.667 0.258,255.252 0.333,254.745 0.333 C 254.079 0.333,253.796 0.403,253.727 0.583 C 253.671 0.728,253.422 0.833,253.133 0.833 C 252.776 0.833,252.611 0.927,252.548 1.167 C 252.486 1.404,252.321 1.500,251.975 1.500 C 251.697 1.500,251.449 1.607,251.394 1.750 C 251.341 1.887,251.186 2.000,251.050 2.000 C 250.914 2.000,250.763 2.150,250.715 2.333 C 250.667 2.517,250.522 2.667,250.392 2.667 C 250.262 2.667,250.113 2.779,250.060 2.917 C 250.008 3.054,249.860 3.167,249.732 3.167 C 249.604 3.167,249.500 3.317,249.500 3.500 C 249.500 3.688,249.389 3.833,249.245 3.833 C 249.104 3.833,248.946 3.946,248.894 4.083 C 248.841 4.221,248.693 4.333,248.566 4.333 C 248.423 4.333,248.333 4.512,248.333 4.796 C 248.333 5.051,248.202 5.386,248.042 5.540 C 247.324 6.232,247.167 6.471,247.167 6.869 C 247.167 7.102,247.060 7.381,246.930 7.489 C 246.799 7.597,246.640 7.996,246.576 8.375 C 246.512 8.754,246.356 9.167,246.230 9.294 C 246.076 9.448,246.000 9.932,246.000 10.762 C 246.000 11.706,245.945 12.000,245.769 12.000 C 245.502 12.000,245.375 14.954,245.475 18.875 C 245.521 20.702,245.580 21.167,245.766 21.167 C 245.948 21.167,246.000 21.479,246.000 22.583 C 246.000 23.700,246.050 24.000,246.238 24.000 C 246.402 24.000,246.512 24.287,246.591 24.917 C 246.667 25.531,246.781 25.833,246.936 25.833 C 247.089 25.833,247.167 26.031,247.167 26.417 C 247.167 26.828,247.241 27.000,247.421 27.000 C 247.571 27.000,247.717 27.209,247.778 27.514 C 247.834 27.797,247.983 28.068,248.107 28.115 C 248.231 28.163,248.333 28.307,248.333 28.434 C 248.333 28.562,248.437 28.667,248.564 28.667 C 248.691 28.667,248.834 28.817,248.882 29.000 C 248.930 29.183,249.088 29.333,249.234 29.333 C 249.380 29.333,249.500 29.446,249.500 29.583 C 249.500 29.721,249.604 29.833,249.731 29.833 C 249.857 29.833,250.000 29.983,250.048 30.167 C 250.096 30.350,250.255 30.500,250.401 30.500 C 250.547 30.500,250.667 30.613,250.667 30.750 C 250.667 30.887,250.808 31.000,250.981 31.000 C 251.154 31.000,251.333 31.149,251.382 31.333 C 251.441 31.560,251.609 31.667,251.906 31.667 C 252.147 31.667,252.387 31.779,252.440 31.917 C 252.498 32.068,252.750 32.167,253.082 32.167 C 253.488 32.167,253.650 32.252,253.715 32.500 C 253.786 32.771,253.942 32.833,254.547 32.833 C 255.006 32.833,255.372 32.929,255.500 33.083 C 255.813 33.461,269.833 33.461,269.833 33.083 C 269.833 32.909,270.009 32.833,270.417 32.833 C 270.889 32.833,271.000 32.770,271.000 32.500 C 271.000 32.230,271.111 32.167,271.583 32.167 C 271.969 32.167,272.167 32.088,272.167 31.936 C 272.167 31.809,272.317 31.666,272.500 31.618 C 272.683 31.570,272.833 31.412,272.833 31.266 C 272.833 31.120,272.946 31.000,273.083 31.000 C 273.221 31.000,273.333 30.887,273.333 30.750 C 273.333 30.611,273.481 30.500,273.667 30.500 C 273.889 30.500,274.000 30.389,274.000 30.167 C 274.000 29.981,274.111 29.833,274.250 29.833 C 274.387 29.833,274.500 29.721,274.500 29.583 C 274.500 29.446,274.604 29.333,274.732 29.333 C 274.987 29.333,275.167 28.983,275.167 28.486 C 275.167 28.311,275.279 28.167,275.417 28.167 C 275.590 28.167,275.667 27.993,275.667 27.603 C 275.667 27.179,275.750 27.017,276.000 26.952 C 276.288 26.877,276.333 26.724,276.333 25.844 C 276.333 25.090,276.399 24.798,276.583 24.727 C 276.783 24.650,276.833 24.287,276.833 22.919 C 276.833 21.601,276.776 21.160,276.583 21.000 C 276.417 20.862,276.333 20.488,276.333 19.881 C 276.333 19.109,276.282 18.955,276.000 18.882 C 275.750 18.816,275.667 18.654,275.667 18.231 C 275.667 17.840,275.590 17.667,275.417 17.667 C 275.248 17.667,275.167 17.498,275.167 17.151 C 275.167 16.776,275.076 16.612,274.833 16.548 C 274.650 16.500,274.500 16.357,274.500 16.231 C 274.500 16.104,274.404 16.000,274.287 16.000 C 274.169 16.000,273.989 15.778,273.887 15.508 C 273.772 15.204,273.541 14.975,273.283 14.910 C 273.053 14.852,272.827 14.661,272.781 14.486 C 272.735 14.310,272.578 14.167,272.432 14.167 C 272.286 14.167,272.167 14.054,272.167 13.917 C 272.167 13.779,272.054 13.667,271.917 13.667 C 271.779 13.667,271.517 13.517,271.333 13.333 C 271.150 13.150,270.869 12.998,270.708 12.995 C 270.548 12.992,270.271 12.879,270.093 12.745 C 269.826 12.542,268.922 12.500,264.885 12.500 L 260.000 12.500 260.000 16.482 C 260.000 19.960,260.033 20.477,260.264 20.566 C 260.409 20.621,262.096 20.667,264.014 20.667 C 266.706 20.667,267.500 20.714,267.500 20.877 C 267.500 20.992,267.650 21.180,267.833 21.295 C 268.075 21.445,268.167 21.683,268.167 22.156 C 268.167 22.638,268.243 22.829,268.458 22.885 C 268.736 22.958,268.736 22.962,268.458 22.981 C 268.243 22.995,268.167 23.145,268.167 23.558 C 268.167 23.903,268.040 24.230,267.833 24.417 C 267.650 24.583,267.500 24.857,267.500 25.026 C 267.500 25.525,257.768 25.500,257.500 25.000 C 257.396 24.805,257.151 24.667,256.911 24.667 C 256.657 24.667,256.500 24.571,256.500 24.417 C 256.500 24.278,256.352 24.167,256.167 24.167 C 255.944 24.167,255.833 24.056,255.833 23.833 C 255.833 23.648,255.722 23.500,255.583 23.500 C 255.446 23.500,255.333 23.387,255.333 23.250 C 255.333 23.111,255.185 23.000,255.000 23.000 C 254.730 23.000,254.667 22.889,254.667 22.417 C 254.667 22.009,254.591 21.833,254.417 21.833 C 254.220 21.833,254.167 21.600,254.167 20.734 C 254.167 19.776,254.124 19.624,253.833 19.548 C 253.516 19.465,253.500 19.321,253.500 16.583 C 253.500 13.846,253.516 13.701,253.833 13.618 C 254.124 13.542,254.167 13.391,254.167 12.432 C 254.167 11.567,254.220 11.333,254.417 11.333 C 254.591 11.333,254.667 11.157,254.667 10.750 C 254.667 10.278,254.730 10.167,255.000 10.167 C 255.222 10.167,255.333 10.056,255.333 9.833 C 255.333 9.648,255.444 9.500,255.583 9.500 C 255.721 9.500,255.833 9.387,255.833 9.250 C 255.833 9.111,255.981 9.000,256.167 9.000 C 256.350 9.000,256.500 8.893,256.500 8.763 C 256.500 8.633,256.725 8.477,256.999 8.417 C 257.273 8.357,257.557 8.201,257.630 8.072 C 257.740 7.875,259.088 7.829,265.839 7.793 L 273.917 7.750 273.961 3.875 L 274.006 0.000 264.836 0.000 C 258.834 0.000,255.667 0.058,255.667 0.167 M279.833 16.667 L 279.833 33.333 283.917 33.333 L 288.000 33.333 288.000 28.367 L 288.000 23.400 288.568 23.467 C 288.952 23.511,289.163 23.636,289.219 23.850 C 289.278 24.075,289.451 24.167,289.818 24.167 C 290.165 24.167,290.333 24.248,290.333 24.417 C 290.333 24.554,290.446 24.667,290.583 24.667 C 290.721 24.667,290.833 24.776,290.833 24.909 C 290.833 25.054,291.067 25.195,291.417 25.261 C 291.751 25.324,292.000 25.469,292.000 25.602 C 292.000 25.729,292.142 25.833,292.316 25.833 C 292.489 25.833,292.674 25.946,292.727 26.083 C 292.783 26.229,293.033 26.333,293.328 26.333 C 293.722 26.333,293.833 26.407,293.833 26.667 C 293.833 26.923,293.944 27.000,294.316 27.000 C 294.590 27.000,294.839 27.107,294.894 27.250 C 294.946 27.388,295.086 27.500,295.205 27.500 C 295.323 27.500,295.513 27.650,295.628 27.833 C 295.746 28.022,296.017 28.167,296.251 28.167 C 296.509 28.167,296.667 28.261,296.667 28.417 C 296.667 28.591,296.843 28.667,297.250 28.667 C 297.722 28.667,297.833 28.730,297.833 29.000 C 297.833 29.222,297.944 29.333,298.167 29.333 C 298.352 29.333,298.500 29.444,298.500 29.583 C 298.500 29.748,298.665 29.833,298.981 29.833 C 299.321 29.833,299.487 29.931,299.548 30.167 C 299.608 30.393,299.776 30.500,300.073 30.500 C 300.314 30.500,300.554 30.612,300.606 30.750 C 300.659 30.887,300.836 31.000,300.998 31.000 C 301.161 31.000,301.334 31.150,301.382 31.333 C 301.445 31.576,301.609 31.667,301.984 31.667 C 302.332 31.667,302.500 31.748,302.500 31.917 C 302.500 32.056,302.648 32.167,302.833 32.167 C 303.017 32.167,303.167 32.273,303.167 32.403 C 303.167 32.534,303.385 32.688,303.653 32.747 C 303.920 32.806,304.180 32.962,304.231 33.094 C 304.283 33.229,304.542 33.333,304.828 33.333 C 305.179 33.333,305.333 33.414,305.333 33.599 C 305.333 33.745,305.478 33.902,305.655 33.949 C 305.832 33.995,306.017 34.138,306.067 34.266 C 306.116 34.396,306.382 34.500,306.661 34.500 C 306.939 34.500,307.167 34.575,307.167 34.667 C 307.167 34.945,308.121 34.859,308.232 34.570 C 308.546 33.753,308.334 25.333,308.000 25.333 C 307.778 25.333,307.667 25.222,307.667 25.000 C 307.667 24.730,307.556 24.667,307.083 24.667 C 306.676 24.667,306.500 24.591,306.500 24.417 C 306.500 24.242,306.324 24.167,305.917 24.167 C 305.444 24.167,305.333 24.103,305.333 23.833 C 305.333 23.563,305.222 23.500,304.750 23.500 C 304.343 23.500,304.167 23.425,304.167 23.250 C 304.167 23.111,304.019 23.000,303.833 23.000 C 303.650 23.000,303.500 22.921,303.500 22.825 C 303.500 22.728,303.237 22.540,302.917 22.406 C 302.596 22.272,302.333 22.088,302.333 21.998 C 302.333 21.907,302.117 21.833,301.853 21.833 C 301.512 21.833,301.347 21.736,301.285 21.500 C 301.222 21.257,301.058 21.167,300.682 21.167 C 300.335 21.167,300.167 21.085,300.167 20.917 C 300.167 20.744,299.993 20.667,299.603 20.667 C 299.179 20.667,299.017 20.584,298.952 20.333 C 298.869 20.018,298.947 20.000,300.349 20.000 C 301.557 20.000,301.833 19.954,301.833 19.750 C 301.833 19.575,302.009 19.500,302.417 19.500 C 302.889 19.500,303.000 19.437,303.000 19.167 C 303.000 18.897,303.111 18.833,303.583 18.833 C 303.969 18.833,304.167 18.755,304.167 18.603 C 304.167 18.476,304.317 18.333,304.500 18.285 C 304.683 18.237,304.833 18.078,304.833 17.932 C 304.833 17.786,304.946 17.667,305.083 17.667 C 305.221 17.667,305.333 17.563,305.333 17.436 C 305.333 17.309,305.483 17.166,305.667 17.118 C 305.850 17.070,306.000 16.912,306.000 16.766 C 306.000 16.620,306.112 16.500,306.250 16.500 C 306.425 16.500,306.500 16.324,306.500 15.917 C 306.500 15.444,306.563 15.333,306.833 15.333 C 307.103 15.333,307.167 15.222,307.167 14.750 C 307.167 14.343,307.242 14.167,307.417 14.167 C 307.619 14.167,307.667 13.898,307.667 12.750 C 307.667 11.556,307.719 11.281,308.000 11.000 C 308.508 10.492,308.426 8.500,307.897 8.500 C 307.719 8.500,307.667 8.178,307.667 7.078 C 307.667 5.968,307.612 5.635,307.417 5.560 C 307.272 5.505,307.167 5.255,307.167 4.967 C 307.167 4.609,307.073 4.444,306.833 4.382 C 306.596 4.320,306.500 4.154,306.500 3.809 C 306.500 3.531,306.393 3.282,306.250 3.227 C 306.112 3.174,306.000 3.027,306.000 2.899 C 306.000 2.771,305.850 2.667,305.667 2.667 C 305.444 2.667,305.333 2.556,305.333 2.333 C 305.333 2.148,305.222 2.000,305.083 2.000 C 304.946 2.000,304.833 1.887,304.833 1.750 C 304.833 1.602,304.680 1.500,304.457 1.500 C 304.250 1.500,303.987 1.350,303.872 1.167 C 303.758 0.983,303.523 0.833,303.350 0.833 C 303.177 0.833,302.992 0.721,302.940 0.583 C 302.874 0.412,302.606 0.333,302.089 0.333 C 301.673 0.333,301.333 0.258,301.333 0.167 C 301.333 0.057,297.639 0.000,290.583 0.000 L 279.833 0.000 279.833 16.667 M323.500 0.167 C 323.500 0.258,323.237 0.333,322.917 0.333 C 322.509 0.333,322.333 0.409,322.333 0.583 C 322.333 0.722,322.185 0.833,322.000 0.833 C 321.778 0.833,321.667 0.944,321.667 1.167 C 321.667 1.352,321.556 1.500,321.417 1.500 C 321.279 1.500,321.167 1.613,321.167 1.750 C 321.167 1.889,321.019 2.000,320.833 2.000 C 320.611 2.000,320.500 2.111,320.500 2.333 C 320.500 2.519,320.389 2.667,320.250 2.667 C 320.083 2.667,320.000 2.833,320.000 3.167 C 320.000 3.444,319.852 3.815,319.667 4.000 C 319.464 4.202,319.333 4.556,319.333 4.899 C 319.333 5.248,319.238 5.501,319.083 5.560 C 318.907 5.628,318.833 5.903,318.833 6.495 C 318.833 7.222,318.789 7.333,318.500 7.333 C 318.211 7.333,318.167 7.444,318.167 8.167 C 318.167 8.796,318.106 9.000,317.917 9.000 C 317.728 9.000,317.667 9.202,317.667 9.822 C 317.667 10.498,317.607 10.663,317.333 10.750 C 317.088 10.828,317.000 11.002,317.000 11.410 C 317.000 11.749,316.903 12.002,316.750 12.060 C 316.579 12.126,316.500 12.394,316.500 12.911 C 316.500 13.446,316.432 13.667,316.268 13.667 C 315.979 13.667,315.833 14.029,315.833 14.746 C 315.833 15.083,315.736 15.335,315.583 15.394 C 315.407 15.461,315.333 15.736,315.333 16.328 C 315.333 17.056,315.289 17.167,315.000 17.167 C 314.711 17.167,314.667 17.278,314.667 18.000 C 314.667 18.630,314.606 18.833,314.417 18.833 C 314.242 18.833,314.167 19.009,314.167 19.417 C 314.167 19.778,314.040 20.127,313.833 20.333 C 313.631 20.536,313.500 20.889,313.500 21.232 C 313.500 21.581,313.404 21.834,313.250 21.894 C 313.080 21.959,313.000 22.225,313.000 22.725 C 313.000 23.321,312.937 23.478,312.667 23.548 C 312.388 23.621,312.333 23.776,312.333 24.484 C 312.333 25.128,312.273 25.333,312.083 25.333 C 311.894 25.333,311.833 25.537,311.833 26.167 C 311.833 26.889,311.789 27.000,311.500 27.000 C 311.224 27.000,311.167 27.111,311.167 27.646 C 311.167 28.017,311.060 28.381,310.917 28.500 C 310.773 28.619,310.667 28.983,310.667 29.354 C 310.667 29.793,310.593 30.000,310.436 30.000 C 310.183 30.000,310.006 30.495,310.002 31.208 C 310.001 31.504,309.911 31.667,309.750 31.667 C 309.561 31.667,309.500 31.870,309.500 32.500 L 309.500 33.333 313.833 33.333 L 318.167 33.333 318.167 32.769 C 318.167 32.346,318.250 32.184,318.500 32.118 C 318.772 32.047,318.833 31.891,318.833 31.266 C 318.833 30.696,318.897 30.500,319.083 30.500 C 319.258 30.500,319.333 30.324,319.333 29.917 L 319.333 29.333 326.917 29.333 C 333.546 29.333,334.500 29.365,334.500 29.583 C 334.500 29.721,334.603 29.833,334.729 29.833 C 334.958 29.833,335.167 30.520,335.167 31.271 C 335.167 31.505,335.265 31.667,335.408 31.667 C 335.577 31.667,335.664 31.903,335.699 32.458 L 335.750 33.250 340.042 33.294 L 344.333 33.339 344.333 32.248 C 344.333 31.431,344.270 31.132,344.083 31.060 C 343.913 30.995,343.833 30.728,343.833 30.217 C 343.833 29.609,343.771 29.452,343.500 29.382 C 343.224 29.309,343.167 29.154,343.167 28.481 C 343.167 27.868,343.105 27.667,342.917 27.667 C 342.742 27.667,342.667 27.491,342.667 27.083 C 342.667 26.722,342.540 26.373,342.333 26.167 C 342.127 25.960,342.000 25.611,342.000 25.250 C 342.000 24.843,341.925 24.667,341.750 24.667 C 341.561 24.667,341.500 24.463,341.500 23.833 C 341.500 23.111,341.456 23.000,341.167 23.000 C 340.874 23.000,340.833 22.889,340.833 22.083 C 340.833 21.380,340.775 21.167,340.583 21.167 C 340.397 21.167,340.333 20.970,340.333 20.401 C 340.333 19.776,340.272 19.620,340.000 19.548 C 339.730 19.478,339.667 19.321,339.667 18.725 C 339.667 18.225,339.587 17.959,339.417 17.894 C 339.261 17.834,339.167 17.579,339.167 17.217 C 339.167 16.776,339.086 16.614,338.833 16.548 C 338.557 16.476,338.500 16.321,338.500 15.647 C 338.500 15.035,338.438 14.833,338.250 14.833 C 338.062 14.833,338.000 14.631,338.000 14.011 C 338.000 13.336,337.941 13.170,337.667 13.083 C 337.399 12.998,337.333 12.831,337.333 12.234 C 337.333 11.726,337.254 11.459,337.083 11.394 C 336.929 11.334,336.833 11.081,336.833 10.732 C 336.833 10.389,336.702 10.036,336.500 9.833 C 336.315 9.648,336.167 9.278,336.167 9.000 C 336.167 8.667,336.083 8.500,335.917 8.500 C 335.725 8.500,335.667 8.287,335.667 7.583 C 335.667 6.778,335.626 6.667,335.333 6.667 C 335.044 6.667,335.000 6.556,335.000 5.833 C 335.000 5.204,334.939 5.000,334.750 5.000 C 334.575 5.000,334.500 4.824,334.500 4.417 C 334.500 4.056,334.373 3.706,334.167 3.500 C 333.983 3.317,333.833 3.054,333.833 2.917 C 333.833 2.779,333.721 2.667,333.583 2.667 C 333.415 2.667,333.333 2.498,333.333 2.151 C 333.333 1.784,333.242 1.612,333.015 1.552 C 332.841 1.507,332.660 1.326,332.614 1.151 C 332.561 0.946,332.384 0.833,332.117 0.833 C 331.889 0.833,331.659 0.721,331.606 0.583 C 331.550 0.437,331.301 0.333,331.005 0.333 C 330.727 0.333,330.500 0.258,330.500 0.167 C 330.500 0.061,329.222 0.000,327.000 0.000 C 324.778 0.000,323.500 0.061,323.500 0.167 M352.500 0.167 C 352.500 0.258,352.246 0.333,351.934 0.333 C 351.586 0.333,351.332 0.429,351.273 0.583 C 351.220 0.721,350.980 0.833,350.740 0.833 C 350.442 0.833,350.274 0.940,350.215 1.167 C 350.167 1.350,350.024 1.500,349.897 1.500 C 349.770 1.500,349.667 1.613,349.667 1.750 C 349.667 1.889,349.519 2.000,349.333 2.000 C 349.111 2.000,349.000 2.111,349.000 2.333 C 349.000 2.519,348.889 2.667,348.750 2.667 C 348.613 2.667,348.500 2.770,348.500 2.897 C 348.500 3.024,348.350 3.167,348.167 3.215 C 347.924 3.278,347.833 3.442,347.833 3.818 C 347.833 4.165,347.752 4.333,347.583 4.333 C 347.399 4.333,347.333 4.525,347.333 5.058 C 347.333 5.570,347.236 5.870,347.000 6.083 C 346.672 6.380,346.667 6.597,346.667 19.859 L 346.667 33.333 351.082 33.333 L 355.498 33.333 355.541 20.625 L 355.583 7.917 356.125 7.864 C 356.510 7.827,356.667 7.882,356.667 8.052 C 356.667 8.184,356.779 8.386,356.917 8.500 C 357.065 8.623,357.167 8.987,357.167 9.397 C 357.167 9.906,357.254 10.141,357.500 10.295 C 357.743 10.446,357.833 10.683,357.833 11.168 C 357.833 11.648,357.903 11.833,358.083 11.833 C 358.273 11.833,358.333 12.039,358.333 12.682 C 358.333 13.391,358.388 13.546,358.667 13.618 C 358.943 13.691,359.000 13.846,359.000 14.519 C 359.000 15.132,359.062 15.333,359.250 15.333 C 359.440 15.333,359.500 15.539,359.500 16.182 C 359.500 16.891,359.555 17.046,359.833 17.118 C 360.109 17.191,360.167 17.346,360.167 18.019 C 360.167 18.632,360.229 18.833,360.417 18.833 C 360.606 18.833,360.667 19.039,360.667 19.682 C 360.667 20.391,360.722 20.546,361.000 20.618 C 361.276 20.691,361.333 20.846,361.333 21.519 C 361.333 22.132,361.395 22.333,361.583 22.333 C 361.771 22.333,361.833 22.535,361.833 23.147 C 361.833 23.821,361.891 23.976,362.167 24.048 C 362.445 24.121,362.500 24.276,362.500 24.984 C 362.500 25.628,362.560 25.833,362.750 25.833 C 362.923 25.833,363.000 26.008,363.000 26.403 C 363.000 27.137,363.144 27.500,363.434 27.500 C 363.589 27.500,363.667 27.696,363.667 28.083 C 363.667 28.491,363.742 28.667,363.917 28.667 C 364.055 28.667,364.167 28.815,364.167 28.999 C 364.167 29.181,364.317 29.424,364.500 29.539 C 364.683 29.653,364.833 29.881,364.833 30.045 C 364.833 30.209,364.946 30.387,365.083 30.440 C 365.221 30.492,365.333 30.640,365.333 30.768 C 365.333 30.896,365.475 31.000,365.647 31.000 C 365.821 31.000,366.000 31.149,366.048 31.333 C 366.112 31.576,366.276 31.667,366.651 31.667 C 366.998 31.667,367.167 31.748,367.167 31.917 C 367.167 32.072,367.324 32.167,367.582 32.167 C 367.817 32.167,368.088 32.312,368.205 32.500 C 368.366 32.757,368.594 32.833,369.207 32.833 C 369.801 32.833,370.000 32.896,370.000 33.083 C 370.000 33.454,373.797 33.454,373.940 33.083 C 374.009 32.904,374.289 32.833,374.934 32.833 C 375.722 32.833,375.833 32.792,375.833 32.500 C 375.833 32.230,375.944 32.167,376.417 32.167 C 376.824 32.167,377.000 32.091,377.000 31.917 C 377.000 31.748,377.168 31.667,377.516 31.667 C 377.891 31.667,378.055 31.576,378.118 31.333 C 378.166 31.150,378.309 31.000,378.436 31.000 C 378.563 31.000,378.667 30.887,378.667 30.750 C 378.667 30.611,378.815 30.500,379.000 30.500 C 379.222 30.500,379.333 30.389,379.333 30.167 C 379.333 29.981,379.444 29.833,379.583 29.833 C 379.758 29.833,379.833 29.657,379.833 29.250 C 379.833 28.778,379.897 28.667,380.167 28.667 C 380.437 28.667,380.500 28.556,380.500 28.083 C 380.500 27.676,380.575 27.500,380.750 27.500 C 380.969 27.500,381.000 26.356,381.000 18.207 C 381.000 9.094,381.006 8.909,381.333 8.705 C 381.517 8.591,381.667 8.348,381.667 8.165 C 381.667 7.897,381.779 7.833,382.250 7.833 L 382.833 7.833 382.833 8.667 C 382.833 9.261,382.899 9.500,383.062 9.500 C 383.210 9.500,383.321 9.774,383.378 10.282 C 383.427 10.719,383.584 11.149,383.733 11.258 C 383.890 11.373,384.000 11.694,384.000 12.040 C 384.000 12.362,384.113 12.719,384.250 12.833 C 384.387 12.947,384.500 13.245,384.500 13.495 C 384.500 13.744,384.650 14.084,384.833 14.250 C 385.069 14.463,385.167 14.763,385.167 15.276 C 385.167 15.808,385.233 16.000,385.417 16.000 C 385.603 16.000,385.667 16.196,385.667 16.766 C 385.667 17.391,385.728 17.547,386.000 17.618 C 386.276 17.691,386.333 17.846,386.333 18.525 C 386.333 19.099,386.408 19.372,386.583 19.440 C 386.736 19.498,386.833 19.751,386.833 20.088 C 386.833 20.805,386.979 21.167,387.268 21.167 C 387.435 21.167,387.500 21.399,387.500 22.000 C 387.500 22.594,387.565 22.833,387.728 22.833 C 387.877 22.833,387.988 23.107,388.045 23.615 C 388.094 24.053,388.250 24.482,388.400 24.592 C 388.558 24.707,388.667 25.028,388.667 25.381 C 388.667 25.709,388.779 26.089,388.917 26.226 C 389.054 26.364,389.167 26.689,389.167 26.948 C 389.167 27.239,389.294 27.499,389.500 27.628 C 389.753 27.786,389.833 28.017,389.833 28.585 C 389.833 29.139,389.898 29.333,390.083 29.333 C 390.269 29.333,390.333 29.530,390.333 30.099 C 390.333 30.724,390.394 30.880,390.667 30.952 C 390.948 31.025,391.000 31.179,391.000 31.936 C 391.000 32.623,391.059 32.833,391.250 32.833 C 391.387 32.833,391.500 32.946,391.500 33.083 C 391.500 33.299,392.083 33.333,395.750 33.333 L 400.000 33.333 400.000 32.167 C 400.000 31.500,399.929 31.000,399.833 31.000 C 399.742 31.000,399.667 30.709,399.667 30.354 C 399.667 29.983,399.560 29.619,399.417 29.500 C 399.279 29.386,399.167 29.039,399.167 28.730 C 399.167 28.278,399.101 28.167,398.833 28.167 C 398.544 28.167,398.500 28.056,398.500 27.333 C 398.500 26.704,398.439 26.500,398.250 26.500 C 398.060 26.500,398.000 26.295,398.000 25.651 C 398.000 24.942,397.945 24.788,397.667 24.715 C 397.397 24.644,397.333 24.488,397.333 23.892 C 397.333 23.392,397.253 23.125,397.083 23.060 C 396.933 23.003,396.833 22.751,396.833 22.430 C 396.833 22.127,396.690 21.742,396.500 21.538 C 396.297 21.320,396.167 20.950,396.167 20.590 C 396.167 20.177,396.092 20.000,395.917 20.000 C 395.731 20.000,395.667 19.804,395.667 19.234 C 395.667 18.609,395.606 18.453,395.333 18.382 C 395.059 18.310,395.000 18.154,395.000 17.498 C 395.000 16.945,394.924 16.673,394.750 16.606 C 394.593 16.546,394.500 16.291,394.500 15.922 C 394.500 15.556,394.374 15.207,394.167 15.000 C 393.981 14.815,393.833 14.444,393.833 14.167 C 393.833 13.833,393.750 13.667,393.583 13.667 C 393.395 13.667,393.333 13.464,393.333 12.845 C 393.333 12.169,393.274 12.004,393.000 11.917 C 392.726 11.830,392.667 11.664,392.667 10.989 C 392.667 10.369,392.605 10.167,392.417 10.167 C 392.243 10.167,392.167 9.992,392.167 9.597 C 392.167 8.863,392.023 8.500,391.732 8.500 C 391.580 8.500,391.500 8.307,391.500 7.937 C 391.500 7.627,391.387 7.281,391.250 7.167 C 391.105 7.046,391.000 6.682,391.000 6.297 C 391.000 5.776,390.929 5.617,390.667 5.548 C 390.416 5.483,390.333 5.321,390.333 4.897 C 390.333 4.507,390.256 4.333,390.083 4.333 C 389.915 4.333,389.833 4.165,389.833 3.818 C 389.833 3.442,389.743 3.278,389.500 3.215 C 389.317 3.167,389.167 3.024,389.167 2.897 C 389.167 2.770,389.054 2.667,388.917 2.667 C 388.778 2.667,388.667 2.519,388.667 2.333 C 388.667 2.111,388.556 2.000,388.333 2.000 C 388.148 2.000,388.000 1.889,388.000 1.750 C 388.000 1.613,387.887 1.500,387.750 1.500 C 387.611 1.500,387.500 1.352,387.500 1.167 C 387.500 0.944,387.389 0.833,387.167 0.833 C 386.981 0.833,386.833 0.722,386.833 0.583 C 386.833 0.409,386.657 0.333,386.250 0.333 C 385.929 0.333,385.667 0.258,385.667 0.167 C 385.667 0.060,384.306 0.000,381.917 0.000 C 379.528 0.000,378.167 0.060,378.167 0.167 C 378.167 0.258,377.904 0.333,377.583 0.333 C 377.190 0.333,377.000 0.411,377.000 0.570 C 377.000 0.700,376.781 0.855,376.514 0.914 C 376.247 0.972,375.986 1.128,375.936 1.260 C 375.885 1.392,375.729 1.500,375.589 1.500 C 375.448 1.500,375.333 1.604,375.333 1.731 C 375.333 1.857,375.183 2.000,375.000 2.048 C 374.817 2.096,374.667 2.255,374.667 2.401 C 374.667 2.547,374.554 2.667,374.417 2.667 C 374.242 2.667,374.167 2.843,374.167 3.250 C 374.167 3.722,374.103 3.833,373.833 3.833 C 373.563 3.833,373.500 3.944,373.500 4.417 C 373.500 4.824,373.425 5.000,373.250 5.000 C 373.031 5.000,373.000 6.134,373.000 14.210 C 373.000 23.239,372.993 23.424,372.667 23.628 C 372.478 23.746,372.333 24.017,372.333 24.251 C 372.333 24.615,372.261 24.667,371.750 24.667 C 371.194 24.667,371.167 24.639,371.167 24.083 C 371.167 23.676,371.091 23.500,370.917 23.500 C 370.731 23.500,370.667 23.304,370.667 22.734 C 370.667 22.109,370.606 21.953,370.333 21.882 C 370.052 21.808,370.000 21.654,370.000 20.897 C 370.000 20.211,369.941 20.000,369.750 20.000 C 369.577 20.000,369.500 19.826,369.500 19.430 C 369.500 18.696,369.356 18.333,369.066 18.333 C 368.898 18.333,368.833 18.100,368.833 17.495 C 368.833 16.903,368.760 16.628,368.583 16.560 C 368.446 16.508,368.332 16.266,368.331 16.024 C 368.327 15.327,368.148 14.833,367.897 14.833 C 367.732 14.833,367.667 14.598,367.667 14.000 C 367.667 13.370,367.606 13.167,367.417 13.167 C 367.265 13.167,367.167 13.012,367.167 12.771 C 367.167 12.020,366.958 11.333,366.729 11.333 C 366.569 11.333,366.500 11.110,366.500 10.592 C 366.500 10.145,366.410 9.797,366.274 9.717 C 366.150 9.643,366.006 9.252,365.953 8.847 C 365.899 8.432,365.743 8.046,365.595 7.963 C 365.441 7.877,365.333 7.594,365.333 7.274 C 365.333 6.975,365.223 6.585,365.089 6.407 C 364.954 6.229,364.842 5.840,364.839 5.542 C 364.834 5.113,364.764 5.000,364.500 5.000 C 364.230 5.000,364.167 4.889,364.167 4.417 C 364.167 4.009,364.091 3.833,363.917 3.833 C 363.779 3.833,363.667 3.689,363.667 3.514 C 363.667 3.017,363.487 2.667,363.232 2.667 C 363.104 2.667,363.000 2.517,363.000 2.333 C 363.000 2.150,362.896 2.000,362.768 2.000 C 362.640 2.000,362.492 1.888,362.440 1.750 C 362.387 1.613,362.238 1.500,362.108 1.500 C 361.978 1.500,361.833 1.350,361.785 1.167 C 361.722 0.924,361.558 0.833,361.182 0.833 C 360.835 0.833,360.667 0.752,360.667 0.583 C 360.667 0.409,360.491 0.333,360.083 0.333 C 359.762 0.333,359.500 0.258,359.500 0.167 C 359.500 0.061,358.222 0.000,356.000 0.000 C 353.778 0.000,352.500 0.061,352.500 0.167 M51.000 8.083 C 51.000 8.221,51.107 8.333,51.239 8.333 C 51.370 8.333,51.525 8.483,51.583 8.667 C 51.642 8.850,51.797 9.000,51.928 9.000 C 52.340 9.000,52.256 10.941,51.833 11.205 C 51.650 11.320,51.500 11.498,51.500 11.602 C 51.500 11.706,51.125 11.840,50.667 11.901 C 50.096 11.977,49.833 12.088,49.833 12.256 C 49.833 12.464,49.155 12.500,45.167 12.500 L 40.500 12.500 40.500 10.167 L 40.500 7.833 45.750 7.833 C 50.306 7.833,51.000 7.866,51.000 8.083 M298.911 8.422 C 299.577 9.088,299.839 11.333,299.250 11.333 C 299.112 11.333,299.000 11.436,299.000 11.562 C 299.000 11.710,298.708 11.829,298.167 11.901 C 297.596 11.977,297.333 12.088,297.333 12.256 C 297.333 12.464,296.655 12.500,292.667 12.500 L 288.000 12.500 288.000 10.167 L 288.000 7.833 293.161 7.833 L 298.322 7.833 298.911 8.422 M74.169 8.976 C 74.173 9.673,74.352 10.167,74.603 10.167 C 74.768 10.167,74.833 10.402,74.833 11.000 C 74.833 11.594,74.899 11.833,75.062 11.833 C 75.210 11.833,75.321 12.107,75.378 12.615 C 75.427 13.053,75.584 13.482,75.733 13.592 C 75.892 13.707,76.000 14.028,76.000 14.381 C 76.000 14.709,76.112 15.089,76.250 15.226 C 76.387 15.364,76.500 15.657,76.500 15.879 C 76.500 16.100,76.650 16.417,76.833 16.583 C 77.069 16.797,77.167 17.097,77.167 17.609 C 77.167 18.142,77.233 18.333,77.417 18.333 C 77.603 18.333,77.667 18.530,77.667 19.099 C 77.667 19.724,77.728 19.880,78.000 19.952 C 78.250 20.017,78.333 20.179,78.333 20.603 L 78.333 21.167 73.667 21.167 C 69.789 21.167,69.000 21.127,69.000 20.934 C 69.000 20.807,69.112 20.659,69.250 20.606 C 69.426 20.539,69.500 20.264,69.500 19.672 C 69.500 18.944,69.544 18.833,69.833 18.833 C 70.104 18.833,70.167 18.722,70.167 18.238 C 70.167 17.911,70.279 17.530,70.417 17.393 C 70.554 17.255,70.667 16.888,70.667 16.577 C 70.667 16.182,70.767 15.958,71.000 15.833 C 71.257 15.696,71.333 15.484,71.333 14.911 C 71.333 14.360,71.398 14.167,71.583 14.167 C 71.771 14.167,71.833 13.965,71.833 13.353 C 71.833 12.679,71.891 12.524,72.167 12.452 C 72.445 12.379,72.500 12.224,72.500 11.516 C 72.500 10.872,72.560 10.667,72.750 10.667 C 72.917 10.667,73.000 10.500,73.000 10.167 C 73.000 9.889,73.148 9.519,73.333 9.333 C 73.517 9.150,73.667 8.852,73.667 8.672 C 73.667 8.449,73.747 8.374,73.917 8.440 C 74.054 8.492,74.168 8.734,74.169 8.976 M226.570 8.434 C 226.760 8.508,226.833 8.761,226.833 9.351 C 226.833 9.965,226.895 10.167,227.083 10.167 C 227.269 10.167,227.333 10.363,227.333 10.932 C 227.333 11.558,227.394 11.714,227.667 11.785 C 227.941 11.857,228.000 12.012,228.000 12.668 C 228.000 13.222,228.076 13.494,228.250 13.560 C 228.407 13.620,228.500 13.875,228.500 14.243 C 228.500 14.650,228.602 14.895,228.833 15.039 C 229.071 15.187,229.167 15.427,229.167 15.873 C 229.167 16.319,229.239 16.500,229.417 16.500 C 229.606 16.500,229.667 16.705,229.667 17.349 C 229.667 18.058,229.722 18.212,230.000 18.285 C 230.276 18.357,230.333 18.512,230.333 19.186 C 230.333 19.798,230.395 20.000,230.583 20.000 C 230.758 20.000,230.833 20.176,230.833 20.583 L 230.833 21.167 226.167 21.167 C 222.304 21.167,221.500 21.127,221.500 20.936 C 221.500 20.809,221.650 20.666,221.833 20.618 C 222.112 20.546,222.167 20.391,222.167 19.682 C 222.167 19.039,222.227 18.833,222.417 18.833 C 222.583 18.833,222.667 18.667,222.667 18.333 C 222.667 18.056,222.815 17.685,223.000 17.500 C 223.207 17.293,223.333 16.944,223.333 16.578 C 223.333 16.209,223.426 15.954,223.583 15.894 C 223.757 15.827,223.833 15.555,223.833 15.002 C 223.833 14.346,223.892 14.190,224.167 14.118 C 224.439 14.047,224.500 13.891,224.500 13.266 C 224.500 12.696,224.564 12.500,224.750 12.500 C 224.935 12.500,225.000 12.306,225.000 11.751 C 225.000 11.183,225.080 10.953,225.333 10.795 C 225.552 10.658,225.667 10.406,225.667 10.061 C 225.667 9.748,225.768 9.497,225.917 9.440 C 226.063 9.384,226.167 9.134,226.167 8.839 C 226.167 8.293,226.176 8.283,226.570 8.434 M327.500 9.351 C 327.500 10.056,327.545 10.167,327.833 10.167 C 328.122 10.167,328.167 10.278,328.167 11.000 C 328.167 11.630,328.228 11.833,328.417 11.833 C 328.606 11.833,328.667 12.039,328.667 12.682 C 328.667 13.391,328.722 13.546,329.000 13.618 C 329.270 13.689,329.333 13.846,329.333 14.441 C 329.333 14.942,329.413 15.208,329.583 15.273 C 329.738 15.332,329.833 15.586,329.833 15.934 C 329.833 16.278,329.964 16.631,330.167 16.833 C 330.373 17.040,330.500 17.389,330.500 17.750 C 330.500 18.157,330.575 18.333,330.750 18.333 C 330.939 18.333,331.000 18.537,331.000 19.167 C 331.000 19.889,331.044 20.000,331.333 20.000 C 331.603 20.000,331.667 20.111,331.667 20.583 L 331.667 21.167 327.000 21.167 C 323.122 21.167,322.333 21.127,322.333 20.934 C 322.333 20.807,322.446 20.659,322.583 20.606 C 322.759 20.539,322.833 20.266,322.833 19.691 C 322.833 19.012,322.890 18.857,323.167 18.785 C 323.432 18.716,323.500 18.558,323.500 18.010 C 323.500 17.553,323.584 17.291,323.750 17.227 C 323.913 17.164,324.000 16.905,324.000 16.482 C 324.000 16.041,324.074 15.833,324.231 15.833 C 324.483 15.833,324.661 15.339,324.664 14.625 C 324.666 14.330,324.756 14.167,324.917 14.167 C 325.106 14.167,325.167 13.963,325.167 13.333 C 325.167 12.732,325.231 12.500,325.399 12.500 C 325.699 12.500,325.833 12.134,325.833 11.320 C 325.833 10.850,325.904 10.667,326.083 10.667 C 326.258 10.667,326.333 10.491,326.333 10.083 C 326.333 9.722,326.460 9.373,326.667 9.167 C 326.850 8.983,327.000 8.723,327.000 8.589 C 327.000 8.439,327.098 8.381,327.250 8.440 C 327.425 8.507,327.500 8.780,327.500 9.351 " stroke="none" fill="#042c8c" fill-rule="evenodd"></path><path id="path1" d="" stroke="none" fill="#082c8c" fill-rule="evenodd"></path><path id="path2" d="" stroke="none" fill="#082c8c" fill-rule="evenodd"></path><path id="path3" d="" stroke="none" fill="#082c8c" fill-rule="evenodd"></path><path id="path4" d="" stroke="none" fill="#082c8c" fill-rule="evenodd"></path></g></svg>